<svg version="1.0" xmlns="http://www.w3.org/2000/svg"
 width="671.000000" height="591.000000" viewBox="0 0 671.000000 591.000000"
 preserveAspectRatio="xMidYMid meet">
<g transform="translate(0.000000,591.000000) scale(0.100000,-0.100000)"
fill="#000000" stroke="none">
<path d="M243 5895 c-106 -33 -187 -107 -224 -204 -17 -45 -20 -72 -17 -142 4
-85 4 -85 82 -225 43 -76 86 -150 94 -164 8 -13 127 -220 265 -460 236 -412
303 -527 393 -681 21 -37 79 -137 128 -223 87 -151 90 -155 109 -138 11 9 31
40 45 67 23 43 27 63 27 135 0 77 -3 92 -35 155 -28 57 -35 84 -38 148 -4 68
-1 84 23 132 58 119 191 228 332 271 99 30 147 30 258 -2 139 -40 226 -55 275
-48 121 16 244 78 331 168 25 27 79 107 120 178 58 103 87 143 138 189 111
102 224 144 370 137 152 -7 218 -66 250 -225 36 -182 116 -253 285 -253 87 0
142 18 314 103 85 42 176 81 203 86 221 48 379 -70 354 -264 -8 -67 -37 -123
-121 -236 -125 -168 -144 -271 -69 -380 35 -50 88 -76 201 -99 214 -43 268
-73 304 -167 20 -51 21 -65 12 -116 -16 -86 -52 -155 -113 -216 -67 -66 -106
-89 -286 -167 -79 -34 -166 -77 -193 -94 -109 -70 -190 -194 -198 -301 -5 -61
6 -102 47 -189 22 -47 26 -69 26 -146 0 -90 0 -91 -45 -164 -30 -49 -65 -91
-105 -123 -158 -127 -303 -152 -505 -88 -97 31 -112 33 -206 29 -94 -4 -107
-7 -185 -46 -46 -23 -101 -56 -122 -73 -46 -38 -105 -116 -141 -187 -79 -157
-157 -244 -276 -310 -36 -19 -67 -37 -69 -38 -4 -3 65 -124 309 -549 124 -214
297 -511 360 -615 15 -25 53 -88 83 -141 58 -99 94 -136 177 -180 38 -20 60
-24 135 -24 78 0 98 4 145 27 102 50 86 26 539 818 68 118 142 247 166 285 64
107 194 331 345 595 46 80 114 199 153 265 38 66 87 149 107 185 21 36 84 144
140 240 57 96 124 213 150 260 46 82 116 202 450 780 85 146 170 294 190 330
20 36 91 157 157 270 66 113 160 273 208 355 49 83 129 220 178 305 50 85 120
207 157 270 234 398 260 448 271 506 14 76 6 142 -26 212 -40 88 -103 143
-199 175 -46 16 -288 17 -3120 16 -2511 0 -3079 -3 -3113 -14z"/>
<path d="M2559 4017 c-34 -18 -54 -40 -88 -96 -70 -117 -155 -154 -266 -117
-72 25 -155 -1 -209 -64 -36 -43 -41 -71 -22 -127 38 -111 1 -175 -129 -224
-36 -13 -76 -39 -106 -68 -43 -41 -49 -53 -49 -87 0 -54 28 -79 102 -93 75
-13 106 -34 114 -77 5 -29 -1 -44 -40 -106 -54 -84 -59 -125 -21 -163 37 -38
105 -34 201 10 117 54 172 45 200 -34 27 -76 36 -89 69 -106 44 -20 67 -19
120 6 50 23 95 70 121 124 22 48 89 103 133 111 21 4 67 1 109 -8 85 -18 126
-12 180 26 71 48 86 100 55 185 -31 89 5 139 147 210 106 52 140 88 140 151 0
51 -32 78 -106 90 -111 18 -132 85 -60 190 45 65 52 92 36 131 -16 39 -37 49
-100 49 -37 0 -67 -8 -113 -32 -46 -23 -76 -32 -115 -32 -65 0 -88 20 -101 89
-12 65 -37 85 -106 85 -35 0 -66 -8 -96 -23z"/>
</g>
</svg>
